{
    "asset" : {
        "generator" : "Khronos glTF Blender I/O v1.6.16",
        "version" : "2.0"
    },
    "scene" : 0,
    "scenes" : [
        {
            "name" : "Scene",
            "nodes" : [
                0,
                1,
                2,
                3,
                4
            ]
        }
    ],
    "nodes" : [
        {
            "mesh" : 0,
            "name" : "Plane",
            "rotation" : [
                0,
                0,
                -0.7068477869033813,
                0.7073656916618347
            ],
            "scale" : [
                2,
                1,
                1
            ],
            "translation" : [
                0.7949776649475098,
                0.058042049407958984,
                -0.25297069549560547
            ]
        },
        {
            "name" : "Plane.001",
            "rotation" : [
                0,
                0,
                -0.7068477869033813,
                0.7073656916618347
            ],
            "scale" : [
                2,
                0.9626262187957764,
                1
            ],
            "translation" : [
                0.7949776649475098,
                0.058042049407958984,
                -0.25297069549560547
            ]
        },
        {
            "mesh" : 1,
            "name" : "Plane.002",
            "rotation" : [
                0,
                0,
                -0.7068477869033813,
                0.7073656916618347
            ],
            "scale" : [
                2,
                1,
                1
            ],
            "translation" : [
                0.7949776649475098,
                0.058042049407958984,
                -0.25297069549560547
            ]
        },
        {
            "mesh" : 2,
            "name" : "Cube",
            "scale" : [
                0.0587705634534359,
                0.19337506592273712,
                -0.016435861587524414
            ],
            "translation" : [
                0.9067865014076233,
                1.4402252435684204,
                -1.265005350112915
            ]
        },
        {
            "mesh" : 2,
            "name" : "Cube.001",
            "scale" : [
                0.0587705634534359,
                0.19337506592273712,
                -0.016435861587524414
            ],
            "translation" : [
                0.9067865014076233,
                1.016270399093628,
                -1.265005350112915
            ]
        }
    ],
    "materials" : [
        {
            "doubleSided" : true,
            "name" : "Material.002",
            "pbrMetallicRoughness" : {
                "baseColorFactor" : [
                    0,
                    0,
                    0,
                    1
                ],
                "metallicFactor" : 0,
                "roughnessFactor" : 0.5
            }
        },
        {
            "doubleSided" : true,
            "name" : "Material.005",
            "pbrMetallicRoughness" : {
                "baseColorTexture" : {
                    "index" : 0
                },
                "metallicFactor" : 0,
                "roughnessFactor" : 0.5
            }
        },
        {
            "doubleSided" : true,
            "name" : "Material.004",
            "pbrMetallicRoughness" : {
                "baseColorFactor" : [
                    0.07036012411117554,
                    0.07036011666059494,
                    0.07036012411117554,
                    1
                ],
                "metallicFactor" : 0,
                "roughnessFactor" : 0.5
            }
        }
    ],
    "meshes" : [
        {
            "name" : "Plane",
            "primitives" : [
                {
                    "attributes" : {
                        "POSITION" : 0,
                        "NORMAL" : 1,
                        "TEXCOORD_0" : 2
                    },
                    "indices" : 3,
                    "material" : 0
                }
            ]
        },
        {
            "name" : "Plane.002",
            "primitives" : [
                {
                    "attributes" : {
                        "POSITION" : 4,
                        "NORMAL" : 5,
                        "TEXCOORD_0" : 6
                    },
                    "indices" : 7,
                    "material" : 1
                }
            ]
        },
        {
            "name" : "Cube.001",
            "primitives" : [
                {
                    "attributes" : {
                        "POSITION" : 8,
                        "NORMAL" : 9,
                        "TEXCOORD_0" : 10
                    },
                    "indices" : 11,
                    "material" : 2
                }
            ]
        }
    ],
    "textures" : [
        {
            "sampler" : 0,
            "source" : 0
        }
    ],
    "images" : [
        {
            "mimeType" : "image/jpeg",
            "name" : "iPhone+12+Pro+Max+\u2013+1@2x",
            "uri" : "iPhone12ProMax%E2%80%9312x.jpg"
        }
    ],
    "accessors" : [
        {
            "bufferView" : 0,
            "componentType" : 5126,
            "count" : 252,
            "max" : [
                1,
                0.24999980628490448,
                1
            ],
            "min" : [
                -1,
                0,
                -1
            ],
            "type" : "VEC3"
        },
        {
            "bufferView" : 1,
            "componentType" : 5126,
            "count" : 252,
            "type" : "VEC3"
        },
        {
            "bufferView" : 2,
            "componentType" : 5126,
            "count" : 252,
            "type" : "VEC2"
        },
        {
            "bufferView" : 3,
            "componentType" : 5123,
            "count" : 414,
            "type" : "SCALAR"
        },
        {
            "bufferView" : 4,
            "componentType" : 5126,
            "count" : 28,
            "max" : [
                0.9492496848106384,
                0.24997922778129578,
                0.9351996183395386
            ],
            "min" : [
                -0.9211495518684387,
                0.24997922778129578,
                -0.9351996183395386
            ],
            "type" : "VEC3"
        },
        {
            "bufferView" : 5,
            "componentType" : 5126,
            "count" : 28,
            "type" : "VEC3"
        },
        {
            "bufferView" : 6,
            "componentType" : 5126,
            "count" : 28,
            "type" : "VEC2"
        },
        {
            "bufferView" : 7,
            "componentType" : 5123,
            "count" : 78,
            "type" : "SCALAR"
        },
        {
            "bufferView" : 8,
            "componentType" : 5126,
            "count" : 24,
            "max" : [
                1,
                1,
                1
            ],
            "min" : [
                -1,
                -1,
                -1
            ],
            "type" : "VEC3"
        },
        {
            "bufferView" : 9,
            "componentType" : 5126,
            "count" : 24,
            "type" : "VEC3"
        },
        {
            "bufferView" : 10,
            "componentType" : 5126,
            "count" : 24,
            "type" : "VEC2"
        },
        {
            "bufferView" : 11,
            "componentType" : 5123,
            "count" : 36,
            "type" : "SCALAR"
        }
    ],
    "bufferViews" : [
        {
            "buffer" : 0,
            "byteLength" : 3024,
            "byteOffset" : 0
        },
        {
            "buffer" : 0,
            "byteLength" : 3024,
            "byteOffset" : 3024
        },
        {
            "buffer" : 0,
            "byteLength" : 2016,
            "byteOffset" : 6048
        },
        {
            "buffer" : 0,
            "byteLength" : 828,
            "byteOffset" : 8064
        },
        {
            "buffer" : 0,
            "byteLength" : 336,
            "byteOffset" : 8892
        },
        {
            "buffer" : 0,
            "byteLength" : 336,
            "byteOffset" : 9228
        },
        {
            "buffer" : 0,
            "byteLength" : 224,
            "byteOffset" : 9564
        },
        {
            "buffer" : 0,
            "byteLength" : 156,
            "byteOffset" : 9788
        },
        {
            "buffer" : 0,
            "byteLength" : 288,
            "byteOffset" : 9944
        },
        {
            "buffer" : 0,
            "byteLength" : 288,
            "byteOffset" : 10232
        },
        {
            "buffer" : 0,
            "byteLength" : 192,
            "byteOffset" : 10520
        },
        {
            "buffer" : 0,
            "byteLength" : 72,
            "byteOffset" : 10712
        }
    ],
    "samplers" : [
        {
            "magFilter" : 9729,
            "minFilter" : 9987
        }
    ],
    "buffers" : [
        {
            "byteLength" : 10784,
            "uri" : "untitled.bin"
        }
    ]
}
